<?xml version="1.0" encoding="UTF-8" standalone="no"?>
<svg xmlns:cc="http://creativecommons.org/ns#" xmlns:dc="http://purl.org/dc/elements/1.1/"
    xmlns:inkscape="http://www.inkscape.org/namespaces/inkscape"
    xmlns:rdf="http://www.w3.org/1999/02/22-rdf-syntax-ns#"
    xmlns:sodipodi="http://sodipodi.sourceforge.net/DTD/sodipodi-0.dtd" height="24" id="svg8"
    version="1.1" viewBox="0 0 24 24" width="24" xmlns="http://www.w3.org/2000/svg"
    inkscape:version="0.92.4 (5da689c313, 2019-01-14)">
    <metadata id="metadata14">
        <rdf:RDF>
            <cc:Work rdf:about="">
                <dc:format>image/svg+xml</dc:format>
                <dc:type rdf:resource="http://purl.org/dc/dcmitype/StillImage" />
            </cc:Work>
        </rdf:RDF>
    </metadata>
    <defs id="defs12" />
    <sodipodi:namedview bordercolor="#666666" borderopacity="1" gridtolerance="10"
        guidetolerance="10" id="namedview10" objecttolerance="10" pagecolor="#ffffff"
        showgrid="false" inkscape:current-layer="svg8" inkscape:cx="-13.887444"
        inkscape:cy="2.2096023" inkscape:pageopacity="0" inkscape:pageshadow="2"
        inkscape:window-height="744" inkscape:window-maximized="0" inkscape:window-width="1234"
        inkscape:window-x="0" inkscape:window-y="0" inkscape:zoom="8" />
    <path d="M24 0H0v24h24V0z" fill="none" id="path2" />
    <path style="opacity:0.3;stroke-width:0.59976315"
        d="m 8.9296875,13.372204 c 0,1.030348 0.3463282,1.996298 0.983125,2.73042 0.6312105,0.734122 1.4746875,1.133382 2.3684375,1.133382 V 7.9049262 L 9.9128125,10.641785 c -0.6367968,0.727683 -0.983125,1.700073 -0.983125,2.730419 z"
        id="path4" inkscape:connector-curvature="0" />
    <path style="stroke-width:0.59976315"
        d="M 15.442891,9.727352 12.28125,6.0825 9.1196094,9.727352 c -1.7428126,2.009177 -1.7428126,5.274089 0,7.283266 0.8714063,1.004588 2.0165226,1.506882 3.1616406,1.506882 1.145118,0 2.290235,-0.502294 3.161641,-1.506882 1.742812,-2.009177 1.742812,-5.274089 0,-7.283266 z m -3.161641,7.508654 c -0.89375,0 -1.737227,-0.39926 -2.3684375,-1.133382 -0.6367968,-0.734122 -0.983125,-1.700072 -0.983125,-2.73042 0,-1.030346 0.3463282,-2.002736 0.983125,-2.730419 L 12.28125,7.9049262 Z"
        id="path6" inkscape:connector-curvature="0" />
    <path style="opacity:1;fill:#feffff;fill-opacity:1;stroke-width:0.59976315"
        d="m 15.632813,13.372204 c 0,1.030348 -0.346328,1.996298 -0.983125,2.73042 -0.631211,0.734122 -1.474688,1.133382 -2.368438,1.133382 V 7.9049261 l 2.368438,2.7368589 c 0.636797,0.727683 0.983125,1.700073 0.983125,2.730419 z"
        id="path4-1" inkscape:connector-curvature="0" />
    <path style="stroke-width:1.2540921"
        d="M 12.09375,2.6061822 12.116875,0.6945623 6.6490969,5.1878665 12.09375,5.1625204 v 0 c 4.072852,0 7.382812,3.4382756 7.382812,7.6690146 0,4.23074 -3.30996,7.669015 -7.382812,7.669015 -4.0728515,0 -7.3828125,-3.438275 -7.3828125,-7.669015 H 2.25 c 0,5.649508 4.4050782,10.225353 9.84375,10.225353 5.438672,0 9.84375,-4.575845 9.84375,-10.225353 0,-5.6495075 -4.405078,-10.2253528 -9.84375,-10.2253528 z"
        id="path4-17" inkscape:connector-curvature="0" sodipodi:nodetypes="cccccssccssc" />
</svg>
